<svg xmlns="http://www.w3.org/2000/svg" viewBox="0 0 1000 720" width="1000" height="720">
  <defs>
    <pattern id="hatch" patternUnits="userSpaceOnUse" width="8" height="8">
      <path d="M0,8 L8,0" stroke="#bbb" stroke-width="0.7"/>
    </pattern>
    <pattern id="hatchSoft" patternUnits="userSpaceOnUse" width="12" height="12">
      <path d="M0,12 L12,0" stroke="#d8d8d8" stroke-width="0.6"/>
    </pattern>
  </defs>
  <rect width="1000" height="720" fill="#fafafa"/>
  <style>
    .lbl { font-family: 'Segoe UI', Arial, sans-serif; font-size: 13px; fill: #555; }
    .lbl-sm { font-family: 'Segoe UI', Arial, sans-serif; font-size: 11px; fill: #777; }
    .lbl-lg { font-family: 'Segoe UI', Arial, sans-serif; font-size: 18px; fill: #222; font-weight: 600; }
    .lbl-xl { font-family: 'Segoe UI', Arial, sans-serif; font-size: 26px; fill: #111; font-weight: 700; }
    .ttl { font-family: 'Segoe UI', Arial, sans-serif; font-size: 11px; fill: #999; text-transform: uppercase; letter-spacing: 0.1em; }
    .box { fill: #fff; stroke: #333; stroke-width: 1.5; }
    .fill { fill: url(#hatch); stroke: #555; stroke-width: 1; }
    .fillSoft { fill: url(#hatchSoft); stroke: #aaa; stroke-width: 1; }
    .btn { fill: #f0f0f0; stroke: #333; stroke-width: 1.5; }
    .btn-primary { fill: #333; stroke: #333; }
    .lbl-btn { font-family: 'Segoe UI', Arial, sans-serif; font-size: 12px; fill: #222; font-weight: 600; }
    .lbl-btn-w { font-family: 'Segoe UI', Arial, sans-serif; font-size: 12px; fill: #fff; font-weight: 600; }
    .input { fill: #fff; stroke: #999; stroke-width: 1; }
    .img { fill: url(#hatchSoft); stroke: #aaa; stroke-width: 1; }
    .img line { stroke: #aaa; stroke-width: 0.7; }
    .divider { stroke: #ddd; stroke-width: 1; stroke-dasharray: 3 3; }
    .red { fill: none; stroke: #c33; stroke-width: 1.5; }
    .lbl-red { fill: #c33; }
  </style>

<rect x="0" y="0" width="1000" height="50" rx="0" class="fillSoft"/>
<text x="40" y="30" class="lbl-lg">📺 Расписание ТВ</text>
<text x="260" y="30" class="lbl">Расписание</text>
<text x="360" y="30" class="lbl">Поиск</text>
<rect x="780" y="13" width="90" height="24" rx="4" class="btn"/>
    <text x="825" y="29" class="lbl-btn" text-anchor="middle">Войти</text>
<rect x="880" y="13" width="90" height="24" rx="4" class="btn-primary"/>
    <text x="925" y="29" class="lbl-btn-w" text-anchor="middle">Регистрация</text>
<text x="40" y="100" class="lbl-xl">Поиск передач</text>
<text x="40" y="124" class="lbl-sm">Используйте любую комбинацию фильтров — они работают независимо</text>
<rect x="40" y="150" width="920" height="130" rx="3" class="fillSoft"/>
<text x="56" y="175" class="ttl">// Название передачи</text>
<rect x="56" y="185" width="888" height="30" rx="3" class="input"/>
    <text x="64" y="204" class="lbl-sm">например, «новости» или «футбол»</text>
<text x="56" y="235" class="ttl">// Жанр</text>
<rect x="56" y="245" width="280" height="28" rx="3" class="input"/>
    <text x="64" y="263" class="lbl-sm">— любой —</text>
<text x="350" y="235" class="ttl">// Дата эфира</text>
<rect x="350" y="245" width="200" height="28" rx="3" class="input"/>
    <text x="358" y="263" class="lbl-sm">дд.мм.гггг</text>
<rect x="750" y="245" width="110" height="28" rx="4" class="btn-primary"/>
    <text x="805" y="263" class="lbl-btn-w" text-anchor="middle">🔍 Найти</text>
<rect x="870" y="245" width="90" height="28" rx="4" class="btn"/>
    <text x="915" y="263" class="lbl-btn" text-anchor="middle">Сбросить</text>
<text x="40" y="310" class="lbl-lg">Найдено: 12 передач</text>
<line x1="40" y1="322" x2="960" y2="322" class="divider"/>
<rect x="40" y="340" width="292.6666666666667" height="145" rx="3" class="box"/>
<g>
    <rect x="50" y="350" width="70" height="90" class="img"/>
    <line x1="50" y1="350" x2="120" y2="440"/>
    <line x1="120" y1="350" x2="50" y2="440"/>
  </g>
<text x="130" y="370" class="lbl">Название передачи</text>
<text x="130" y="390" class="lbl-sm">◢ Жанр  ◢ 12+</text>
<text x="130" y="410" class="lbl-sm">60 мин</text>
<text x="50" y="460" class="lbl-sm">Каналы: Первый, Россия-1</text>
<rect x="346.6666666666667" y="340" width="292.6666666666667" height="145" rx="3" class="box"/>
<g>
    <rect x="356.6666666666667" y="350" width="70" height="90" class="img"/>
    <line x1="356.6666666666667" y1="350" x2="426.6666666666667" y2="440"/>
    <line x1="426.6666666666667" y1="350" x2="356.6666666666667" y2="440"/>
  </g>
<text x="436.6666666666667" y="370" class="lbl">Название передачи</text>
<text x="436.6666666666667" y="390" class="lbl-sm">◢ Жанр  ◢ 12+</text>
<text x="436.6666666666667" y="410" class="lbl-sm">60 мин</text>
<text x="356.6666666666667" y="460" class="lbl-sm">Каналы: Первый, Россия-1</text>
<rect x="653.3333333333334" y="340" width="292.6666666666667" height="145" rx="3" class="box"/>
<g>
    <rect x="663.3333333333334" y="350" width="70" height="90" class="img"/>
    <line x1="663.3333333333334" y1="350" x2="733.3333333333334" y2="440"/>
    <line x1="733.3333333333334" y1="350" x2="663.3333333333334" y2="440"/>
  </g>
<text x="743.3333333333334" y="370" class="lbl">Название передачи</text>
<text x="743.3333333333334" y="390" class="lbl-sm">◢ Жанр  ◢ 12+</text>
<text x="743.3333333333334" y="410" class="lbl-sm">60 мин</text>
<text x="663.3333333333334" y="460" class="lbl-sm">Каналы: Первый, Россия-1</text>
<rect x="40" y="500" width="292.6666666666667" height="145" rx="3" class="box"/>
<g>
    <rect x="50" y="510" width="70" height="90" class="img"/>
    <line x1="50" y1="510" x2="120" y2="600"/>
    <line x1="120" y1="510" x2="50" y2="600"/>
  </g>
<text x="130" y="530" class="lbl">Название передачи</text>
<text x="130" y="550" class="lbl-sm">◢ Жанр  ◢ 12+</text>
<text x="130" y="570" class="lbl-sm">60 мин</text>
<text x="50" y="620" class="lbl-sm">Каналы: Первый, Россия-1</text>
<rect x="346.6666666666667" y="500" width="292.6666666666667" height="145" rx="3" class="box"/>
<g>
    <rect x="356.6666666666667" y="510" width="70" height="90" class="img"/>
    <line x1="356.6666666666667" y1="510" x2="426.6666666666667" y2="600"/>
    <line x1="426.6666666666667" y1="510" x2="356.6666666666667" y2="600"/>
  </g>
<text x="436.6666666666667" y="530" class="lbl">Название передачи</text>
<text x="436.6666666666667" y="550" class="lbl-sm">◢ Жанр  ◢ 12+</text>
<text x="436.6666666666667" y="570" class="lbl-sm">60 мин</text>
<text x="356.6666666666667" y="620" class="lbl-sm">Каналы: Первый, Россия-1</text>
<rect x="653.3333333333334" y="500" width="292.6666666666667" height="145" rx="3" class="box"/>
<g>
    <rect x="663.3333333333334" y="510" width="70" height="90" class="img"/>
    <line x1="663.3333333333334" y1="510" x2="733.3333333333334" y2="600"/>
    <line x1="733.3333333333334" y1="510" x2="663.3333333333334" y2="600"/>
  </g>
<text x="743.3333333333334" y="530" class="lbl">Название передачи</text>
<text x="743.3333333333334" y="550" class="lbl-sm">◢ Жанр  ◢ 12+</text>
<text x="743.3333333333334" y="570" class="lbl-sm">60 мин</text>
<text x="663.3333333333334" y="620" class="lbl-sm">Каналы: Первый, Россия-1</text>
<line x1="0" y1="690" x2="1000" y2="690" class="divider"/>
    <text x="500" y="708" class="lbl-sm" text-anchor="middle">© 2026  ·  Расписание ТВ  ·  Курсовая работа</text>
</svg>