<svg xmlns="http://www.w3.org/2000/svg" viewBox="0 0 1000 720" width="1000" height="720">
  <defs>
    <pattern id="hatch" patternUnits="userSpaceOnUse" width="8" height="8">
      <path d="M0,8 L8,0" stroke="#bbb" stroke-width="0.7"/>
    </pattern>
    <pattern id="hatchSoft" patternUnits="userSpaceOnUse" width="12" height="12">
      <path d="M0,12 L12,0" stroke="#d8d8d8" stroke-width="0.6"/>
    </pattern>
  </defs>
  <rect width="1000" height="720" fill="#fafafa"/>
  <style>
    .lbl { font-family: 'Segoe UI', Arial, sans-serif; font-size: 13px; fill: #555; }
    .lbl-sm { font-family: 'Segoe UI', Arial, sans-serif; font-size: 11px; fill: #777; }
    .lbl-lg { font-family: 'Segoe UI', Arial, sans-serif; font-size: 18px; fill: #222; font-weight: 600; }
    .lbl-xl { font-family: 'Segoe UI', Arial, sans-serif; font-size: 26px; fill: #111; font-weight: 700; }
    .ttl { font-family: 'Segoe UI', Arial, sans-serif; font-size: 11px; fill: #999; text-transform: uppercase; letter-spacing: 0.1em; }
    .box { fill: #fff; stroke: #333; stroke-width: 1.5; }
    .fill { fill: url(#hatch); stroke: #555; stroke-width: 1; }
    .fillSoft { fill: url(#hatchSoft); stroke: #aaa; stroke-width: 1; }
    .btn { fill: #f0f0f0; stroke: #333; stroke-width: 1.5; }
    .btn-primary { fill: #333; stroke: #333; }
    .lbl-btn { font-family: 'Segoe UI', Arial, sans-serif; font-size: 12px; fill: #222; font-weight: 600; }
    .lbl-btn-w { font-family: 'Segoe UI', Arial, sans-serif; font-size: 12px; fill: #fff; font-weight: 600; }
    .input { fill: #fff; stroke: #999; stroke-width: 1; }
    .img { fill: url(#hatchSoft); stroke: #aaa; stroke-width: 1; }
    .img line { stroke: #aaa; stroke-width: 0.7; }
    .divider { stroke: #ddd; stroke-width: 1; stroke-dasharray: 3 3; }
    .red { fill: none; stroke: #c33; stroke-width: 1.5; }
    .lbl-red { fill: #c33; }
  </style>

<rect x="0" y="0" width="1000" height="50" rx="0" class="fillSoft"/>
<text x="40" y="30" class="lbl-lg">📺 Расписание ТВ</text>
<text x="260" y="30" class="lbl">Расписание</text>
<text x="360" y="30" class="lbl">Поиск</text>
<rect x="780" y="13" width="90" height="24" rx="4" class="btn"/>
    <text x="825" y="29" class="lbl-btn" text-anchor="middle">Войти</text>
<rect x="880" y="13" width="90" height="24" rx="4" class="btn-primary"/>
    <text x="925" y="29" class="lbl-btn-w" text-anchor="middle">Регистрация</text>
<rect x="290" y="100" width="420" height="530" rx="3" class="box"/>
<text x="500" y="150" class="lbl-xl" text-anchor="middle">Регистрация</text>
<line x1="350" y1="170" x2="650" y2="170" class="divider"/>
<text x="320" y="200" class="lbl-sm">Email</text>
<rect x="320" y="210" width="360" height="36" rx="3" class="input"/>
    <text x="328" y="232" class="lbl-sm">name@example.com</text>
<text x="320" y="280" class="lbl-sm">Логин (3–32 симв.)</text>
<rect x="320" y="290" width="360" height="36" rx="3" class="input"/>
    <text x="328" y="312" class="lbl-sm">username</text>
<text x="320" y="360" class="lbl-sm">Отображаемое имя</text>
<rect x="320" y="370" width="360" height="36" rx="3" class="input"/>
    <text x="328" y="392" class="lbl-sm">Иван Петров</text>
<text x="320" y="440" class="lbl-sm">Пароль (минимум 6 символов)</text>
<rect x="320" y="450" width="360" height="36" rx="3" class="input"/>
    <text x="328" y="472" class="lbl-sm">••••••••</text>
<rect x="320" y="540" width="360" height="42" rx="4" class="btn-primary"/>
    <text x="500" y="565" class="lbl-btn-w" text-anchor="middle">Зарегистрироваться</text>
<text x="500" y="610" class="lbl-sm" text-anchor="middle">Уже есть аккаунт? Войти</text>
<line x1="0" y1="690" x2="1000" y2="690" class="divider"/>
    <text x="500" y="708" class="lbl-sm" text-anchor="middle">© 2026  ·  Расписание ТВ  ·  Курсовая работа</text>
</svg>