<svg xmlns="http://www.w3.org/2000/svg" viewBox="0 0 1000 720" width="1000" height="720">
  <defs>
    <pattern id="hatch" patternUnits="userSpaceOnUse" width="8" height="8">
      <path d="M0,8 L8,0" stroke="#bbb" stroke-width="0.7"/>
    </pattern>
    <pattern id="hatchSoft" patternUnits="userSpaceOnUse" width="12" height="12">
      <path d="M0,12 L12,0" stroke="#d8d8d8" stroke-width="0.6"/>
    </pattern>
  </defs>
  <rect width="1000" height="720" fill="#fafafa"/>
  <style>
    .lbl { font-family: 'Segoe UI', Arial, sans-serif; font-size: 13px; fill: #555; }
    .lbl-sm { font-family: 'Segoe UI', Arial, sans-serif; font-size: 11px; fill: #777; }
    .lbl-lg { font-family: 'Segoe UI', Arial, sans-serif; font-size: 18px; fill: #222; font-weight: 600; }
    .lbl-xl { font-family: 'Segoe UI', Arial, sans-serif; font-size: 26px; fill: #111; font-weight: 700; }
    .ttl { font-family: 'Segoe UI', Arial, sans-serif; font-size: 11px; fill: #999; text-transform: uppercase; letter-spacing: 0.1em; }
    .box { fill: #fff; stroke: #333; stroke-width: 1.5; }
    .fill { fill: url(#hatch); stroke: #555; stroke-width: 1; }
    .fillSoft { fill: url(#hatchSoft); stroke: #aaa; stroke-width: 1; }
    .btn { fill: #f0f0f0; stroke: #333; stroke-width: 1.5; }
    .btn-primary { fill: #333; stroke: #333; }
    .lbl-btn { font-family: 'Segoe UI', Arial, sans-serif; font-size: 12px; fill: #222; font-weight: 600; }
    .lbl-btn-w { font-family: 'Segoe UI', Arial, sans-serif; font-size: 12px; fill: #fff; font-weight: 600; }
    .input { fill: #fff; stroke: #999; stroke-width: 1; }
    .img { fill: url(#hatchSoft); stroke: #aaa; stroke-width: 1; }
    .img line { stroke: #aaa; stroke-width: 0.7; }
    .divider { stroke: #ddd; stroke-width: 1; stroke-dasharray: 3 3; }
    .red { fill: none; stroke: #c33; stroke-width: 1.5; }
    .lbl-red { fill: #c33; }
  </style>

<rect x="0" y="0" width="1000" height="50" rx="0" class="fillSoft"/>
<text x="40" y="30" class="lbl-lg">📺 Расписание ТВ</text>
<text x="260" y="30" class="lbl">Расписание</text>
<text x="360" y="30" class="lbl">Поиск</text>
<text x="440" y="30" class="lbl">Кабинет</text>
<text x="510" y="30" class="lbl">Избранное</text>
<text x="595" y="30" class="lbl">Подписки</text>
<text x="800" y="30" class="lbl">ivan @ client</text>
<rect x="920" y="13" width="50" height="24" rx="4" class="btn"/>
    <text x="945" y="29" class="lbl-btn" text-anchor="middle">Выйти</text>
<text x="40" y="100" class="lbl-xl">Профиль</text>
<rect x="40" y="130" width="920" height="130" rx="3" class="box"/>
<circle cx="110" cy="195" r="48" class="img"/>
<line x1="68" y1="153" x2="152" y2="237" class="img"/>
<line x1="152" y1="153" x2="68" y2="237" class="img"/>
<text x="190" y="158" class="lbl">Email:  ivan@tv.local</text>
<text x="190" y="180" class="lbl">Логин:  ivan</text>
<text x="190" y="202" class="lbl">Имя:  Иван Петров</text>
<text x="190" y="224" class="lbl">Роль:  client</text>
<text x="190" y="246" class="lbl">Создан:  28.05.2026</text>
<text x="40" y="295" class="lbl-lg">Обновить данные</text>
<line x1="40" y1="305" x2="960" y2="305" class="divider"/>
<text x="40" y="335" class="lbl-sm">Отображаемое имя</text>
<rect x="40" y="345" width="920" height="36" rx="3" class="input"/>
    <text x="48" y="367" class="lbl-sm">Иван Петров</text>
<text x="40" y="405" class="lbl-sm">Аватар (PNG/JPEG/WEBP, до 5 МБ)</text>
<rect x="40" y="415" width="920" height="50" rx="3" class="box"/>
<rect x="52" y="425" width="130" height="30" rx="4" class="btn"/>
    <text x="117" y="444" class="lbl-btn" text-anchor="middle">Выбрать файл</text>
<text x="195" y="444" class="lbl-sm">… файл не выбран</text>
<rect x="40" y="490" width="200" height="42" rx="4" class="btn-primary"/>
    <text x="140" y="515" class="lbl-btn-w" text-anchor="middle">Сохранить</text>
<line x1="0" y1="690" x2="1000" y2="690" class="divider"/>
    <text x="500" y="708" class="lbl-sm" text-anchor="middle">© 2026  ·  Расписание ТВ  ·  Курсовая работа</text>
</svg>