<svg xmlns="http://www.w3.org/2000/svg" viewBox="0 0 1000 720" width="1000" height="720">
  <defs>
    <pattern id="hatch" patternUnits="userSpaceOnUse" width="8" height="8">
      <path d="M0,8 L8,0" stroke="#bbb" stroke-width="0.7"/>
    </pattern>
    <pattern id="hatchSoft" patternUnits="userSpaceOnUse" width="12" height="12">
      <path d="M0,12 L12,0" stroke="#d8d8d8" stroke-width="0.6"/>
    </pattern>
  </defs>
  <rect width="1000" height="720" fill="#fafafa"/>
  <style>
    .lbl { font-family: 'Segoe UI', Arial, sans-serif; font-size: 13px; fill: #555; }
    .lbl-sm { font-family: 'Segoe UI', Arial, sans-serif; font-size: 11px; fill: #777; }
    .lbl-lg { font-family: 'Segoe UI', Arial, sans-serif; font-size: 18px; fill: #222; font-weight: 600; }
    .lbl-xl { font-family: 'Segoe UI', Arial, sans-serif; font-size: 26px; fill: #111; font-weight: 700; }
    .ttl { font-family: 'Segoe UI', Arial, sans-serif; font-size: 11px; fill: #999; text-transform: uppercase; letter-spacing: 0.1em; }
    .box { fill: #fff; stroke: #333; stroke-width: 1.5; }
    .fill { fill: url(#hatch); stroke: #555; stroke-width: 1; }
    .fillSoft { fill: url(#hatchSoft); stroke: #aaa; stroke-width: 1; }
    .btn { fill: #f0f0f0; stroke: #333; stroke-width: 1.5; }
    .btn-primary { fill: #333; stroke: #333; }
    .lbl-btn { font-family: 'Segoe UI', Arial, sans-serif; font-size: 12px; fill: #222; font-weight: 600; }
    .lbl-btn-w { font-family: 'Segoe UI', Arial, sans-serif; font-size: 12px; fill: #fff; font-weight: 600; }
    .input { fill: #fff; stroke: #999; stroke-width: 1; }
    .img { fill: url(#hatchSoft); stroke: #aaa; stroke-width: 1; }
    .img line { stroke: #aaa; stroke-width: 0.7; }
    .divider { stroke: #ddd; stroke-width: 1; stroke-dasharray: 3 3; }
    .red { fill: none; stroke: #c33; stroke-width: 1.5; }
    .lbl-red { fill: #c33; }
  </style>

<rect x="0" y="0" width="1000" height="50" rx="0" class="fillSoft"/>
<text x="40" y="30" class="lbl-lg">📺 Расписание ТВ</text>
<text x="260" y="30" class="lbl">Расписание</text>
<text x="360" y="30" class="lbl">Поиск</text>
<text x="440" y="30" class="lbl">Каналы</text>
<text x="510" y="30" class="lbl">Передачи</text>
<text x="585" y="30" class="lbl">Пользователи</text>
<text x="685" y="30" class="lbl">Журнал</text>
<text x="800" y="30" class="lbl">admin @ admin</text>
<rect x="920" y="13" width="50" height="24" rx="4" class="btn"/>
    <text x="945" y="29" class="lbl-btn" text-anchor="middle">Выйти</text>
<text x="40" y="100" class="lbl-xl">Управление каналами</text>
<text x="40" y="124" class="ttl">Всего каналов: 5</text>
<rect x="40" y="150" width="920" height="36" rx="3" class="box"/>
<text x="56" y="172" class="lbl">▸  + Добавить канал</text>
<rect x="40" y="215" width="920" height="32" rx="3" class="fillSoft"/>
<text x="54" y="236" class="ttl">Лого</text>
<text x="124" y="236" class="ttl">Название</text>
<text x="324" y="236" class="ttl">Slug</text>
<text x="474" y="236" class="ttl">Категория</text>
<text x="604" y="236" class="ttl">Активен</text>
<text x="684" y="236" class="ttl">Описание</text>
<text x="884" y="236" class="ttl"></text>
<line x1="40" y1="247" x2="960" y2="247" class="divider"/>
<g>
    <rect x="52" y="255" width="46" height="46" class="img"/>
    <line x1="52" y1="255" x2="98" y2="301"/>
    <line x1="98" y1="255" x2="52" y2="301"/>
  </g>
<text x="124" y="277" class="lbl">Первый канал</text>
<text x="324" y="277" class="lbl-sm">/channel-one</text>
<text x="474" y="277" class="lbl-sm">эфирный</text>
<text x="604" y="277" class="lbl-sm">✔</text>
<text x="684" y="277" class="lbl-sm">Главный …</text>
<rect x="890" y="265" width="28" height="28" rx="4" class="btn"/>
    <text x="904" y="283" class="lbl-btn" text-anchor="middle">✎</text>
<rect x="924" y="265" width="28" height="28" rx="4" class="btn"/>
    <text x="938" y="283" class="lbl-btn" text-anchor="middle">×</text>
<line x1="40" y1="307" x2="960" y2="307" class="divider"/>
<g>
    <rect x="52" y="315" width="46" height="46" class="img"/>
    <line x1="52" y1="315" x2="98" y2="361"/>
    <line x1="98" y1="315" x2="52" y2="361"/>
  </g>
<text x="124" y="337" class="lbl">Россия-1</text>
<text x="324" y="337" class="lbl-sm">/rossiya-1</text>
<text x="474" y="337" class="lbl-sm">эфирный</text>
<text x="604" y="337" class="lbl-sm">✔</text>
<text x="684" y="337" class="lbl-sm">Главный …</text>
<rect x="890" y="325" width="28" height="28" rx="4" class="btn"/>
    <text x="904" y="343" class="lbl-btn" text-anchor="middle">✎</text>
<rect x="924" y="325" width="28" height="28" rx="4" class="btn"/>
    <text x="938" y="343" class="lbl-btn" text-anchor="middle">×</text>
<line x1="40" y1="367" x2="960" y2="367" class="divider"/>
<g>
    <rect x="52" y="375" width="46" height="46" class="img"/>
    <line x1="52" y1="375" x2="98" y2="421"/>
    <line x1="98" y1="375" x2="52" y2="421"/>
  </g>
<text x="124" y="397" class="lbl">НТВ</text>
<text x="324" y="397" class="lbl-sm">/ntv</text>
<text x="474" y="397" class="lbl-sm">эфирный</text>
<text x="604" y="397" class="lbl-sm">✔</text>
<text x="684" y="397" class="lbl-sm">Главный …</text>
<rect x="890" y="385" width="28" height="28" rx="4" class="btn"/>
    <text x="904" y="403" class="lbl-btn" text-anchor="middle">✎</text>
<rect x="924" y="385" width="28" height="28" rx="4" class="btn"/>
    <text x="938" y="403" class="lbl-btn" text-anchor="middle">×</text>
<line x1="40" y1="427" x2="960" y2="427" class="divider"/>
<g>
    <rect x="52" y="435" width="46" height="46" class="img"/>
    <line x1="52" y1="435" x2="98" y2="481"/>
    <line x1="98" y1="435" x2="52" y2="481"/>
  </g>
<text x="124" y="457" class="lbl">Матч ТВ</text>
<text x="324" y="457" class="lbl-sm">/match-tv</text>
<text x="474" y="457" class="lbl-sm">спорт</text>
<text x="604" y="457" class="lbl-sm">✔</text>
<text x="684" y="457" class="lbl-sm">Главный …</text>
<rect x="890" y="445" width="28" height="28" rx="4" class="btn"/>
    <text x="904" y="463" class="lbl-btn" text-anchor="middle">✎</text>
<rect x="924" y="445" width="28" height="28" rx="4" class="btn"/>
    <text x="938" y="463" class="lbl-btn" text-anchor="middle">×</text>
<line x1="40" y1="487" x2="960" y2="487" class="divider"/>
<g>
    <rect x="52" y="495" width="46" height="46" class="img"/>
    <line x1="52" y1="495" x2="98" y2="541"/>
    <line x1="98" y1="495" x2="52" y2="541"/>
  </g>
<text x="124" y="517" class="lbl">Карусель</text>
<text x="324" y="517" class="lbl-sm">/carousel</text>
<text x="474" y="517" class="lbl-sm">детский</text>
<text x="604" y="517" class="lbl-sm">✔</text>
<text x="684" y="517" class="lbl-sm">Главный …</text>
<rect x="890" y="505" width="28" height="28" rx="4" class="btn"/>
    <text x="904" y="523" class="lbl-btn" text-anchor="middle">✎</text>
<rect x="924" y="505" width="28" height="28" rx="4" class="btn"/>
    <text x="938" y="523" class="lbl-btn" text-anchor="middle">×</text>
<line x1="0" y1="690" x2="1000" y2="690" class="divider"/>
    <text x="500" y="708" class="lbl-sm" text-anchor="middle">© 2026  ·  Расписание ТВ  ·  Курсовая работа</text>
</svg>