<svg xmlns="http://www.w3.org/2000/svg" viewBox="0 0 1000 720" width="1000" height="720">
  <defs>
    <pattern id="hatch" patternUnits="userSpaceOnUse" width="8" height="8">
      <path d="M0,8 L8,0" stroke="#bbb" stroke-width="0.7"/>
    </pattern>
    <pattern id="hatchSoft" patternUnits="userSpaceOnUse" width="12" height="12">
      <path d="M0,12 L12,0" stroke="#d8d8d8" stroke-width="0.6"/>
    </pattern>
  </defs>
  <rect width="1000" height="720" fill="#fafafa"/>
  <style>
    .lbl { font-family: 'Segoe UI', Arial, sans-serif; font-size: 13px; fill: #555; }
    .lbl-sm { font-family: 'Segoe UI', Arial, sans-serif; font-size: 11px; fill: #777; }
    .lbl-lg { font-family: 'Segoe UI', Arial, sans-serif; font-size: 18px; fill: #222; font-weight: 600; }
    .lbl-xl { font-family: 'Segoe UI', Arial, sans-serif; font-size: 26px; fill: #111; font-weight: 700; }
    .ttl { font-family: 'Segoe UI', Arial, sans-serif; font-size: 11px; fill: #999; text-transform: uppercase; letter-spacing: 0.1em; }
    .box { fill: #fff; stroke: #333; stroke-width: 1.5; }
    .fill { fill: url(#hatch); stroke: #555; stroke-width: 1; }
    .fillSoft { fill: url(#hatchSoft); stroke: #aaa; stroke-width: 1; }
    .btn { fill: #f0f0f0; stroke: #333; stroke-width: 1.5; }
    .btn-primary { fill: #333; stroke: #333; }
    .lbl-btn { font-family: 'Segoe UI', Arial, sans-serif; font-size: 12px; fill: #222; font-weight: 600; }
    .lbl-btn-w { font-family: 'Segoe UI', Arial, sans-serif; font-size: 12px; fill: #fff; font-weight: 600; }
    .input { fill: #fff; stroke: #999; stroke-width: 1; }
    .img { fill: url(#hatchSoft); stroke: #aaa; stroke-width: 1; }
    .img line { stroke: #aaa; stroke-width: 0.7; }
    .divider { stroke: #ddd; stroke-width: 1; stroke-dasharray: 3 3; }
    .red { fill: none; stroke: #c33; stroke-width: 1.5; }
    .lbl-red { fill: #c33; }
  </style>

<rect x="0" y="0" width="1000" height="50" rx="0" class="fillSoft"/>
<text x="40" y="30" class="lbl-lg">📺 Расписание ТВ</text>
<text x="260" y="30" class="lbl">Расписание</text>
<text x="360" y="30" class="lbl">Поиск</text>
<text x="440" y="30" class="lbl">Каналы</text>
<text x="510" y="30" class="lbl">Передачи</text>
<text x="585" y="30" class="lbl">Пользователи</text>
<text x="685" y="30" class="lbl">Журнал</text>
<text x="800" y="30" class="lbl">admin @ admin</text>
<rect x="920" y="13" width="50" height="24" rx="4" class="btn"/>
    <text x="945" y="29" class="lbl-btn" text-anchor="middle">Выйти</text>
<text x="40" y="100" class="lbl-xl">Журнал аудита</text>
<rect x="820" y="90" width="140" height="32" rx="4" class="btn-primary"/>
    <text x="890" y="110" class="lbl-btn-w" text-anchor="middle">⬇ Экспорт CSV</text>
<rect x="40" y="150" width="920" height="32" rx="3" class="fillSoft"/>
<text x="54" y="171" class="ttl">Дата / время</text>
<text x="214" y="171" class="ttl">Пользователь</text>
<text x="374" y="171" class="ttl">Действие</text>
<text x="624" y="171" class="ttl">Сущность</text>
<text x="754" y="171" class="ttl">ID</text>
<text x="834" y="171" class="ttl">IP</text>
<line x1="40" y1="182" x2="960" y2="182" class="divider"/>
<text x="54" y="208" class="lbl-sm">28.05.26 04:11:42</text>
<text x="214" y="208" class="lbl-sm">admin</text>
<text x="374" y="208" class="lbl-sm">user.login.ok</text>
<text x="624" y="208" class="lbl-sm">—</text>
<text x="754" y="208" class="lbl-sm">—</text>
<text x="834" y="208" class="lbl-sm">127.0.0.1</text>
<line x1="40" y1="224" x2="960" y2="224" class="divider"/>
<text x="54" y="250" class="lbl-sm">28.05.26 04:09:13</text>
<text x="214" y="250" class="lbl-sm">editor</text>
<text x="374" y="250" class="lbl-sm">schedule.publish</text>
<text x="624" y="250" class="lbl-sm">channel</text>
<text x="754" y="250" class="lbl-sm">1</text>
<text x="834" y="250" class="lbl-sm">127.0.0.1</text>
<line x1="40" y1="266" x2="960" y2="266" class="divider"/>
<text x="54" y="292" class="lbl-sm">28.05.26 04:08:55</text>
<text x="214" y="292" class="lbl-sm">editor</text>
<text x="374" y="292" class="lbl-sm">program.create</text>
<text x="624" y="292" class="lbl-sm">program</text>
<text x="754" y="292" class="lbl-sm">36</text>
<text x="834" y="292" class="lbl-sm">127.0.0.1</text>
<line x1="40" y1="308" x2="960" y2="308" class="divider"/>
<text x="54" y="334" class="lbl-sm">28.05.26 04:05:22</text>
<text x="214" y="334" class="lbl-sm">ivan</text>
<text x="374" y="334" class="lbl-sm">user.login.fail</text>
<text x="624" y="334" class="lbl-sm">—</text>
<text x="754" y="334" class="lbl-sm">—</text>
<text x="834" y="334" class="lbl-sm">127.0.0.1</text>
<line x1="40" y1="350" x2="960" y2="350" class="divider"/>
<text x="54" y="376" class="lbl-sm">28.05.26 04:04:18</text>
<text x="214" y="376" class="lbl-sm">ivan</text>
<text x="374" y="376" class="lbl-sm">user.login.ok</text>
<text x="624" y="376" class="lbl-sm">—</text>
<text x="754" y="376" class="lbl-sm">—</text>
<text x="834" y="376" class="lbl-sm">127.0.0.1</text>
<line x1="40" y1="392" x2="960" y2="392" class="divider"/>
<text x="54" y="418" class="lbl-sm">28.05.26 03:58:33</text>
<text x="214" y="418" class="lbl-sm">admin</text>
<text x="374" y="418" class="lbl-sm">admin.change_role</text>
<text x="624" y="418" class="lbl-sm">user</text>
<text x="754" y="418" class="lbl-sm">5</text>
<text x="834" y="418" class="lbl-sm">127.0.0.1</text>
<line x1="40" y1="434" x2="960" y2="434" class="divider"/>
<text x="54" y="460" class="lbl-sm">28.05.26 03:55:01</text>
<text x="214" y="460" class="lbl-sm">admin</text>
<text x="374" y="460" class="lbl-sm">admin.toggle_active</text>
<text x="624" y="460" class="lbl-sm">user</text>
<text x="754" y="460" class="lbl-sm">5</text>
<text x="834" y="460" class="lbl-sm">127.0.0.1</text>
<line x1="40" y1="476" x2="960" y2="476" class="divider"/>
<text x="54" y="502" class="lbl-sm">28.05.26 03:50:47</text>
<text x="214" y="502" class="lbl-sm">maria</text>
<text x="374" y="502" class="lbl-sm">user.register</text>
<text x="624" y="502" class="lbl-sm">—</text>
<text x="754" y="502" class="lbl-sm">—</text>
<text x="834" y="502" class="lbl-sm">127.0.0.1</text>
<line x1="40" y1="518" x2="960" y2="518" class="divider"/>
<text x="54" y="544" class="lbl-sm">28.05.26 03:42:09</text>
<text x="214" y="544" class="lbl-sm">editor</text>
<text x="374" y="544" class="lbl-sm">channel.update</text>
<text x="624" y="544" class="lbl-sm">channel</text>
<text x="754" y="544" class="lbl-sm">2</text>
<text x="834" y="544" class="lbl-sm">127.0.0.1</text>
<line x1="0" y1="690" x2="1000" y2="690" class="divider"/>
    <text x="500" y="708" class="lbl-sm" text-anchor="middle">© 2026  ·  Расписание ТВ  ·  Курсовая работа</text>
</svg>