<svg xmlns="http://www.w3.org/2000/svg" viewBox="0 0 200 280">
  <defs><linearGradient id="g" x1="0" y1="0" x2="0" y2="1"><stop offset="0" stop-color="#2e7d32"/><stop offset="1" stop-color="#0a3d0c"/></linearGradient></defs>
  <rect width="200" height="280" fill="url(#g)"/>
  <g transform="translate(100,115)">
    <circle cx="0" cy="0" r="42" fill="#fff"/>
    <g fill="#1b5e20">
      <polygon points="0,-32 9,-22 -9,-22"/>
      <polygon points="30,-10 35,5 22,12"/>
      <polygon points="-30,-10 -35,5 -22,12"/>
      <polygon points="18,25 0,32 -18,25"/>
      <circle cx="0" cy="0" r="7"/>
    </g>
    <path d="M 0,-32 L 0,-25 M 30,-10 L 25,-7 M -30,-10 L -25,-7 M 18,25 L 14,21 M -18,25 L -14,21" stroke="#1b5e20" stroke-width="2" fill="none"/>
  </g>
  <text x="100" y="230" font-family="Arial Black, sans-serif" font-size="22" font-weight="900" fill="#fff" text-anchor="middle">СПОРТ</text>
  <text x="100" y="255" font-family="Arial, sans-serif" font-size="11" fill="#fff" opacity="0.7" text-anchor="middle">SPORTS LIVE</text>
</svg>
